# xmcd
#
# Track frame offsets:
#	150
#	10573
#	22458
#	34864
#	47410
#	57267
#	68726
#	78874
#	88509
#	97217
#	106555
#	119157
#
# Disc length: 1717 seconds
#
# Revision: 0
# Processed by: cddbd v1.4b42PL1 Copyright (c) Steve Scherf et al.
# Submitted via: EZCDDA 4.3.3.2
#
DISCID=9406b30c
DTITLE=Various Artist - Porky Chedwick "Golden Goodie Volume 1
DYEAR=1900
DGENRE=
TTITLE0=Four Pearls - Look At Me
TTITLE1=Precisions - Eight Reasons Why I Love You
TTITLE2=Symphonics - All Roads Lead To Heartbreak
TTITLE3=Tojo - Blue Lover
TTITLE4=Utopians - Along My Lonely Way
TTITLE5=Hal Davis - Sweet And Lovely
TTITLE6=Funky Sisters - Do It To It
TTITLE7=Premiers - Run Along Baby
TTITLE8=Poets - Vowels Of Love
TTITLE9=El Capris - Ooh But She Did
TTITLE10=Ronnie Haig - Don't You Hear Me Calling Baby
TTITLE11=Four Steps Of Rhythm - You Better Dig It
EXTD=
EXTT0=
EXTT1=
EXTT2=
EXTT3=
EXTT4=
EXTT5=
EXTT6=
EXTT7=
EXTT8=
EXTT9=
EXTT10=
EXTT11=
PLAYORDER=
